# Blender 4.0.2
# www.blender.org
mtllib stul.mtl
o Cube
v 1.000000 1.270864 -1.000000
v 1.000000 0.974990 -1.000000
v 1.000000 1.270864 1.000000
v 1.000000 0.974990 1.000000
v -1.000000 1.270864 -1.000000
v -1.000000 0.974990 -1.000000
v -1.000000 1.270864 1.000000
v -1.000000 0.974990 1.000000
vn -0.0000 1.0000 -0.0000
vn -0.0000 -0.0000 1.0000
vn -1.0000 -0.0000 -0.0000
vn -0.0000 -1.0000 -0.0000
vn 1.0000 -0.0000 -0.0000
vn -0.0000 -0.0000 -1.0000
vt 0.625000 0.500000
vt 0.875000 0.500000
vt 0.875000 0.750000
vt 0.625000 0.750000
vt 0.375000 0.750000
vt 0.625000 1.000000
vt 0.375000 1.000000
vt 0.375000 0.000000
vt 0.625000 0.000000
vt 0.625000 0.250000
vt 0.375000 0.250000
vt 0.125000 0.500000
vt 0.375000 0.500000
vt 0.125000 0.750000
s 0
usemtl Material
f 1/1/1 5/2/1 7/3/1 3/4/1
f 4/5/2 3/4/2 7/6/2 8/7/2
f 8/8/3 7/9/3 5/10/3 6/11/3
f 6/12/4 2/13/4 4/5/4 8/14/4
f 2/13/5 1/1/5 3/4/5 4/5/5
f 6/11/6 5/10/6 1/1/6 2/13/6
o Cube.001
v 0.724501 -1.000000 0.935409
v 0.724501 1.000000 0.935409
v 0.724501 -1.000000 0.635933
v 0.724501 1.000000 0.635933
v 0.987567 -1.000000 0.935409
v 0.987567 1.000000 0.935409
v 0.987567 -1.000000 0.635933
v 0.987567 1.000000 0.635933
v -0.724501 -1.000000 0.935409
v -0.724501 1.000000 0.935409
v -0.724501 -1.000000 0.635933
v -0.724501 1.000000 0.635933
v -0.987567 -1.000000 0.935409
v -0.987567 1.000000 0.935409
v -0.987567 -1.000000 0.635933
v -0.987567 1.000000 0.635933
v 0.724501 -1.000000 -0.935409
v 0.724501 1.000000 -0.935409
v 0.724501 -1.000000 -0.635933
v 0.724501 1.000000 -0.635933
v 0.987567 -1.000000 -0.935409
v 0.987567 1.000000 -0.935409
v 0.987567 -1.000000 -0.635933
v 0.987567 1.000000 -0.635933
v -0.724501 -1.000000 -0.935409
v -0.724501 1.000000 -0.935409
v -0.724501 -1.000000 -0.635933
v -0.724501 1.000000 -0.635933
v -0.987567 -1.000000 -0.935409
v -0.987567 1.000000 -0.935409
v -0.987567 -1.000000 -0.635933
v -0.987567 1.000000 -0.635933
vn -1.0000 -0.0000 -0.0000
vn -0.0000 -0.0000 -1.0000
vn 1.0000 -0.0000 -0.0000
vn -0.0000 -0.0000 1.0000
vn -0.0000 -1.0000 -0.0000
vn -0.0000 1.0000 -0.0000
vt 0.375000 0.000000
vt 0.625000 0.000000
vt 0.625000 0.250000
vt 0.375000 0.250000
vt 0.625000 0.500000
vt 0.375000 0.500000
vt 0.625000 0.750000
vt 0.375000 0.750000
vt 0.625000 1.000000
vt 0.375000 1.000000
vt 0.125000 0.500000
vt 0.125000 0.750000
vt 0.875000 0.500000
vt 0.875000 0.750000
s 0
f 9/15/7 10/16/7 12/17/7 11/18/7
f 11/18/8 12/17/8 16/19/8 15/20/8
f 15/20/9 16/19/9 14/21/9 13/22/9
f 13/22/10 14/21/10 10/23/10 9/24/10
f 11/25/11 15/20/11 13/22/11 9/26/11
f 16/19/12 12/27/12 10/28/12 14/21/12
f 17/15/9 19/18/9 20/17/9 18/16/9
f 19/18/8 23/20/8 24/19/8 20/17/8
f 23/20/7 21/22/7 22/21/7 24/19/7
f 21/22/10 17/24/10 18/23/10 22/21/10
f 19/25/11 17/26/11 21/22/11 23/20/11
f 24/19/12 22/21/12 18/28/12 20/27/12
f 25/15/7 27/18/7 28/17/7 26/16/7
f 27/18/10 31/20/10 32/19/10 28/17/10
f 31/20/9 29/22/9 30/21/9 32/19/9
f 29/22/8 25/24/8 26/23/8 30/21/8
f 27/25/11 25/26/11 29/22/11 31/20/11
f 32/19/12 30/21/12 26/28/12 28/27/12
f 33/15/9 34/16/9 36/17/9 35/18/9
f 35/18/10 36/17/10 40/19/10 39/20/10
f 39/20/7 40/19/7 38/21/7 37/22/7
f 37/22/8 38/21/8 34/23/8 33/24/8
f 35/25/11 39/20/11 37/22/11 33/26/11
f 40/19/12 36/27/12 34/28/12 38/21/12
