# Blender 4.0.2
# www.blender.org
mtllib tv.mtl
o Cube
v 2.959502 0.300908 -3.177224
v 2.959502 -0.300908 -3.177224
v 2.959502 0.300908 3.177224
v 2.959502 -0.300908 3.177224
v -2.959502 0.300908 -3.177224
v -2.959502 -0.300908 -3.177224
v -2.959502 0.300908 3.177224
v -2.959502 -0.300908 3.177224
v 1.134598 0.300908 1.218067
v -1.134598 0.300908 1.218067
v 1.134598 0.300908 -1.218067
v -1.134598 0.300908 -1.218067
v 1.134598 4.907968 1.218067
v -1.134598 4.907968 1.218067
v 1.134598 4.907968 -1.218067
v -1.134598 4.907968 -1.218067
v 2.683394 4.907968 5.414312
v -2.683394 4.907968 5.414312
v 2.683394 4.907968 -5.414312
v -2.683394 4.907968 -5.414312
v 2.683394 10.550149 5.414312
v -2.683394 10.550149 5.414312
v 2.683394 10.550149 -5.414312
v -2.683394 10.550149 -5.414312
v 2.683394 5.157182 -4.936014
v 2.683394 5.157182 4.936014
v 2.683394 10.300936 -4.936014
v 2.683394 10.300936 4.936014
v 2.372469 5.157182 -4.936014
v 2.372469 5.157182 4.936014
v 2.372469 10.300936 -4.936014
v 2.372469 10.300936 4.936014
vn -0.0000 1.0000 -0.0000
vn -0.0000 -0.0000 1.0000
vn -1.0000 -0.0000 -0.0000
vn -0.0000 -1.0000 -0.0000
vn 1.0000 -0.0000 -0.0000
vn -0.0000 -0.0000 -1.0000
vt 0.625000 0.500000
vt 0.625000 0.250000
vt 0.375000 0.750000
vt 0.625000 0.750000
vt 0.625000 1.000000
vt 0.375000 1.000000
vt 0.375000 0.000000
vt 0.625000 0.000000
vt 0.375000 0.250000
vt 0.125000 0.500000
vt 0.375000 0.500000
vt 0.125000 0.750000
vt 0.875000 0.500000
vt 0.875000 0.750000
s 0
usemtl Material
f 1/1/1 5/2/1 12/2/1 11/1/1
f 4/3/2 3/4/2 7/5/2 8/6/2
f 8/7/3 7/8/3 5/2/3 6/9/3
f 6/10/4 2/11/4 4/3/4 8/12/4
f 2/11/5 1/1/5 3/4/5 4/3/5
f 6/9/6 5/2/6 1/1/6 2/11/6
f 12/2/3 10/8/3 14/8/3 16/2/3
f 7/5/1 3/4/1 9/4/1 10/5/1
f 5/2/1 7/8/1 10/8/1 12/2/1
f 3/4/1 1/1/1 11/1/1 9/4/1
f 16/2/4 14/8/4 18/8/4 20/2/4
f 10/5/2 9/4/2 13/4/2 14/5/2
f 11/1/6 12/2/6 16/2/6 15/1/6
f 9/4/5 11/1/5 15/1/5 13/4/5
f 20/2/3 18/8/3 22/8/3 24/2/3
f 14/5/4 13/4/4 17/4/4 18/5/4
f 15/1/4 16/2/4 20/2/4 19/1/4
f 13/4/4 15/1/4 19/1/4 17/4/4
f 23/1/1 24/13/1 22/14/1 21/4/1
f 18/5/2 17/4/2 21/4/2 22/5/2
f 19/1/6 20/2/6 24/2/6 23/1/6
f 19/1/5 23/1/5 27/1/5 25/1/5
f 25/1/2 27/1/2 31/1/2 29/1/2
f 23/1/5 21/4/5 28/4/5 27/1/5
f 21/4/5 17/4/5 26/4/5 28/4/5
f 17/4/5 19/1/5 25/1/5 26/4/5
f 30/4/5 29/1/5 31/1/5 32/4/5
f 27/1/4 28/4/4 32/4/4 31/1/4
f 28/4/6 26/4/6 30/4/6 32/4/6
f 26/4/1 25/1/1 29/1/1 30/4/1
